<svg width="79" height="79" viewBox="0 0 79 79" fill="none" xmlns="http://www.w3.org/2000/svg">
<circle cx="39.5" cy="39.5" r="38.5" fill="white" stroke="#2C49FE" stroke-width="2"/>
<g clip-path="url(#clip0_18293_1145)">
<path d="M51.6455 32.875H45.0205C44.1422 32.8759 43.3002 33.2252 42.6792 33.8462C42.0582 34.4672 41.7089 35.3092 41.708 36.1875V42.8125C41.7086 43.398 41.9414 43.9594 42.3555 44.3734C42.7695 44.7874 43.3308 45.0202 43.9163 45.0208V52.75C43.9169 53.3355 44.1498 53.8969 44.5638 54.3109C44.9778 54.7249 45.5392 54.9578 46.1247 54.9583H50.5413C51.1268 54.9578 51.6882 54.7249 52.1022 54.3109C52.5162 53.8969 52.7491 53.3355 52.7497 52.75V45.0208C53.3352 45.0202 53.8965 44.7874 54.3106 44.3734C54.7246 43.9594 54.9574 43.398 54.958 42.8125V36.1875C54.9571 35.3092 54.6079 34.4672 53.9868 33.8462C53.3658 33.2252 52.5238 32.8759 51.6455 32.875ZM52.7497 42.8125H50.5413V52.75H46.1247V42.8125H43.9163V36.1875C43.9163 35.8947 44.0327 35.6138 44.2397 35.4067C44.4468 35.1997 44.7277 35.0833 45.0205 35.0833H51.6455C51.9384 35.0833 52.2192 35.1997 52.4263 35.4067C52.6333 35.6138 52.7497 35.8947 52.7497 36.1875V42.8125Z" fill="#2C49FE"/>
<path d="M43.916 27.3542C43.916 26.4806 44.175 25.6267 44.6604 24.9004C45.1457 24.1741 45.8355 23.608 46.6425 23.2737C47.4495 22.9394 48.3376 22.8519 49.1943 23.0224C50.0511 23.1928 50.8381 23.6134 51.4557 24.2311C52.0734 24.8488 52.4941 25.6358 52.6645 26.4925C52.8349 27.3493 52.7474 28.2373 52.4132 29.0444C52.0789 29.8514 51.5128 30.5412 50.7865 31.0265C50.0601 31.5118 49.2062 31.7708 48.3327 31.7708C47.1617 31.7697 46.039 31.304 45.2109 30.4759C44.3829 29.6479 43.9172 28.5252 43.916 27.3542ZM46.1243 27.3542C46.1243 27.7909 46.2539 28.2179 46.4965 28.5811C46.7392 28.9442 47.0841 29.2273 47.4876 29.3944C47.8911 29.5615 48.3351 29.6053 48.7635 29.5201C49.1919 29.4349 49.5854 29.2245 49.8942 28.9157C50.2031 28.6069 50.4134 28.2134 50.4986 27.785C50.5838 27.3566 50.5401 26.9126 50.3729 26.5091C50.2058 26.1056 49.9227 25.7607 49.5596 25.518C49.1964 25.2754 48.7694 25.1458 48.3327 25.1458C47.7472 25.1464 47.1858 25.3793 46.7718 25.7933C46.3578 26.2073 46.1249 26.7687 46.1243 27.3542Z" fill="#2C49FE"/>
<path d="M37.2913 39.5V36.1875C37.2905 35.3092 36.9412 34.4672 36.3202 33.8462C35.6991 33.2252 34.8571 32.8759 33.9788 32.875H27.3538C26.4756 32.8759 25.6335 33.2252 25.0125 33.8462C24.3915 34.4672 24.0422 35.3092 24.0413 36.1875V39.5H21.833V41.7083H39.4997V39.5H37.2913ZM26.2497 36.1875C26.2497 35.8947 26.366 35.6138 26.5731 35.4067C26.7801 35.1997 27.061 35.0833 27.3538 35.0833H33.9788C34.2717 35.0833 34.5525 35.1997 34.7596 35.4067C34.9667 35.6138 35.083 35.8947 35.083 36.1875V39.5H26.2497V36.1875Z" fill="#2C49FE"/>
<path d="M26.25 27.3542C26.25 26.4806 26.509 25.6267 26.9943 24.9004C27.4797 24.1741 28.1694 23.608 28.9765 23.2737C29.7835 22.9394 30.6716 22.8519 31.5283 23.0224C32.3851 23.1928 33.172 23.6134 33.7897 24.2311C34.4074 24.8488 34.8281 25.6358 34.9985 26.4925C35.1689 27.3493 35.0814 28.2373 34.7471 29.0444C34.4128 29.8514 33.8468 30.5412 33.1204 31.0265C32.3941 31.5118 31.5402 31.7708 30.6667 31.7708C29.4957 31.7697 28.3729 31.304 27.5449 30.4759C26.7169 29.6479 26.2512 28.5252 26.25 27.3542ZM28.4583 27.3542C28.4583 27.7909 28.5879 28.2179 28.8305 28.5811C29.0732 28.9442 29.4181 29.2273 29.8216 29.3944C30.2251 29.5615 30.6691 29.6053 31.0975 29.5201C31.5259 29.4349 31.9194 29.2245 32.2282 28.9157C32.537 28.6069 32.7474 28.2134 32.8326 27.785C32.9178 27.3566 32.874 26.9126 32.7069 26.5091C32.5398 26.1056 32.2567 25.7607 31.8936 25.518C31.5304 25.2754 31.1034 25.1458 30.6667 25.1458C30.0812 25.1464 29.5198 25.3793 29.1058 25.7933C28.6918 26.2073 28.4589 26.7687 28.4583 27.3542Z" fill="#2C49FE"/>
</g>
<defs>
<clipPath id="clip0_18293_1145">
<rect width="35.3333" height="35.3333" fill="white" transform="translate(21.833 21.833)"/>
</clipPath>
</defs>
</svg>
