<svg width="79" height="79" viewBox="0 0 79 79" fill="none" xmlns="http://www.w3.org/2000/svg">
<circle cx="39.5" cy="39.5" r="38.5" fill="white" stroke="#2C49FE" stroke-width="2"/>
<path d="M22.2002 28.2002C22.2002 26.6089 22.8323 25.0828 23.9576 23.9576C25.0828 22.8323 26.6089 22.2002 28.2002 22.2002H40.2002C41.7915 22.2002 43.3176 22.8323 44.4428 23.9576C45.5681 25.0828 46.2002 26.6089 46.2002 28.2002C46.2002 28.5185 46.0738 28.8237 45.8487 29.0487C45.6237 29.2738 45.3185 29.4002 45.0002 29.4002C44.6819 29.4002 44.3767 29.2738 44.1517 29.0487C43.9266 28.8237 43.8002 28.5185 43.8002 28.2002C43.8002 27.2454 43.4209 26.3297 42.7458 25.6546C42.0707 24.9795 41.155 24.6002 40.2002 24.6002H28.2002C27.2454 24.6002 26.3297 24.9795 25.6546 25.6546C24.9795 26.3297 24.6002 27.2454 24.6002 28.2002V40.2002C24.6002 41.155 24.9795 42.0707 25.6546 42.7458C26.3297 43.4209 27.2454 43.8002 28.2002 43.8002H39.0338C39.1822 42.4816 39.8109 41.2638 40.7999 40.3791C41.7889 39.4945 43.0691 39.005 44.396 39.0041C45.7229 39.0031 47.0038 39.4907 47.9941 40.3739C48.9844 41.2571 49.6149 42.474 49.7652 43.7924C49.9155 45.1108 49.5751 46.4384 48.809 47.5218C48.0428 48.6052 46.9046 49.3687 45.6115 49.6664C44.3184 49.9641 42.961 49.7753 41.7982 49.136C40.6354 48.4966 39.7488 47.4516 39.3074 46.2002H28.2002C26.6089 46.2002 25.0828 45.5681 23.9576 44.4428C22.8323 43.3176 22.2002 41.7915 22.2002 40.2002V28.2002ZM33.0002 48.6002C32.6819 48.6002 32.3767 48.7266 32.1517 48.9517C31.9266 49.1767 31.8002 49.4819 31.8002 49.8002C31.8002 51.3915 32.4323 52.9176 33.5576 54.0428C34.6828 55.1681 36.2089 55.8002 37.8002 55.8002H49.8002C51.3915 55.8002 52.9176 55.1681 54.0428 54.0428C55.1681 52.9176 55.8002 51.3915 55.8002 49.8002V37.8002C55.8002 36.2089 55.1681 34.6828 54.0428 33.5576C52.9176 32.4323 51.3915 31.8002 49.8002 31.8002H38.693C38.2516 30.5488 37.365 29.5037 36.2022 28.8644C35.0394 28.2251 33.682 28.0363 32.3889 28.334C31.0958 28.6317 29.9576 29.3952 29.1914 30.4786C28.4253 31.562 28.0849 32.8896 28.2352 34.208C28.3855 35.5264 29.016 36.7433 30.0063 37.6265C30.9966 38.5097 32.2774 38.9973 33.6044 38.9963C34.9313 38.9954 36.2114 38.5059 37.2005 37.6212C38.1895 36.7366 38.8182 35.5188 38.9666 34.2002H49.8002C50.755 34.2002 51.6707 34.5795 52.3458 35.2546C53.0209 35.9297 53.4002 36.8454 53.4002 37.8002V49.8002C53.4002 50.755 53.0209 51.6707 52.3458 52.3458C51.6707 53.0209 50.755 53.4002 49.8002 53.4002H37.8002C36.8454 53.4002 35.9297 53.0209 35.2546 52.3458C34.5795 51.6707 34.2002 50.755 34.2002 49.8002C34.2002 49.4819 34.0738 49.1767 33.8487 48.9517C33.6237 48.7266 33.3185 48.6002 33.0002 48.6002Z" fill="#2C49FE"/>
</svg>
